<svg width="51" height="55" viewBox="0 0 51 55" fill="none" xmlns="http://www.w3.org/2000/svg">
<g id="Group 24">
<path id="Vector" d="M32.1614 54.8534C32.1614 54.8329 32.3662 54.3505 32.6164 53.7811C32.8665 53.212 33.0713 52.6862 33.0713 52.6128C33.0713 52.5395 32.6617 51.4506 32.1614 50.1933C31.6611 48.9358 31.2515 47.8621 31.2515 47.8073C31.2515 47.7411 31.4915 47.7076 31.9636 47.7076H32.6755L33.2519 49.436C33.5689 50.3866 33.8417 51.1252 33.8582 51.0769C33.8746 51.0288 34.1272 50.261 34.4196 49.3703L34.9509 47.7514L35.6941 47.7259C36.1029 47.712 36.4375 47.7169 36.4375 47.7371C36.4375 47.7902 34.1231 53.6916 33.858 54.315L33.6344 54.84L32.8978 54.8655C32.4928 54.8794 32.1614 54.874 32.1614 54.8534V54.8534ZM1.80381 52.9591C1.07607 52.812 0.560371 52.4334 0.195574 51.7781C0.0253217 51.4725 0 51.285 0 50.3331C0 49.1336 0.0994339 48.8206 0.65054 48.2843C1.25044 47.7005 2.48605 47.4948 3.66197 47.7829L4.13958 47.9001V49.0392L3.88945 48.9772C3.39496 48.8544 2.72218 48.7984 2.34606 48.8487C1.65435 48.9412 1.3192 49.4257 1.3192 50.3331C1.3192 51.2149 1.62491 51.6803 2.29995 51.8262C2.62522 51.8965 3.07813 51.8545 3.89398 51.6787L4.14884 51.6236L4.12146 52.1732C4.09408 52.7211 4.09305 52.7231 3.75584 52.835C3.29676 52.9874 2.26742 53.0528 1.80381 52.9591ZM10.7722 52.9625C10.0049 52.8282 9.55759 52.5021 9.26567 51.8634C9.13392 51.5755 9.09974 51.1816 9.0703 49.6111L9.03469 47.7076H10.4068L10.4348 49.4948C10.462 51.2343 10.4683 51.2878 10.6773 51.5016C11.0938 51.9274 12.1443 51.8549 12.3922 51.3832C12.4731 51.2294 12.5075 50.6521 12.5085 49.436L12.5097 47.7076H13.8744V49.4859C13.8744 51.5226 13.7834 51.99 13.2955 52.4593C12.8303 52.9068 11.7206 53.1282 10.7724 52.9623L10.7722 52.9625ZM22.654 53.008C22.604 52.9886 22.4152 52.9492 22.2349 52.9203C21.7106 52.8363 21.1253 52.4066 20.8294 51.888C20.596 51.4791 20.5626 51.3232 20.533 50.5081C20.5048 49.7364 20.5299 49.5111 20.6897 49.1023C21.0691 48.133 21.8137 47.6746 23.018 47.6692C23.4182 47.6672 23.9609 47.7187 24.2234 47.7829L24.701 47.9001V49.0392L24.4509 48.9772C23.9564 48.8544 23.2838 48.7984 22.9075 48.8487C22.2158 48.9412 21.8806 49.4257 21.8806 50.3331C21.8806 51.7318 22.6312 52.1266 24.4531 51.6866L24.701 51.6268V52.7627L24.2783 52.8651C23.8221 52.9756 22.8023 53.0653 22.654 53.008V53.008ZM43.1172 47.6742C42.4957 47.6728 42.302 47.7102 41.8656 47.9158C40.9468 48.3481 40.5958 49.0162 40.5958 50.3329C40.5958 51.8652 41.1907 52.7041 42.4556 52.9558C42.9519 53.0548 43.9333 52.9815 44.3529 52.8144C45.242 52.4601 45.7176 51.5953 45.7176 50.3331C45.7176 49.3257 45.5016 48.7364 44.9558 48.2524C44.4564 47.8096 44.0323 47.6762 43.1172 47.6742V47.6742ZM43.1125 48.7695C43.166 48.7707 43.2214 48.7738 43.2791 48.7794C44.035 48.8491 44.3516 49.3079 44.3516 50.3329C44.3516 50.9725 44.2203 51.3955 43.944 51.645C43.6261 51.9324 42.8706 51.9846 42.4768 51.7464C42.1093 51.524 41.9874 51.1676 41.9874 50.3172C41.9874 49.2079 42.3121 48.7518 43.1125 48.7695ZM5.3437 50.4424L5.36778 48.0138L5.84663 47.8611C6.10993 47.7772 6.73433 47.6825 7.23417 47.6512L8.14267 47.5938V48.7451L7.61976 48.7998C7.33176 48.8299 7.00422 48.8728 6.89182 48.8952L6.68698 48.9362V52.871H5.31961L5.3437 50.4424ZM14.9661 50.6786C14.9661 48.298 15.0011 48.1023 15.4635 47.8999C16.2108 47.5724 18.1204 47.5554 18.7623 47.8702C19.6113 48.2871 19.6972 48.5697 19.6972 50.9428V52.871H18.4235V51.2212C18.4235 50.2951 18.3815 49.456 18.3279 49.3079C18.205 48.9691 17.9115 48.8453 17.2305 48.8453C16.2835 48.8453 16.3308 48.7346 16.3308 50.9488V52.871H14.9661V50.6786ZM25.7019 49.3265V45.7822H27.1576V47.7766L27.4987 47.7005C27.9852 47.5916 28.4128 47.6027 28.9536 47.7375C29.6027 47.8995 30.0196 48.1982 30.3162 48.7138C30.5653 49.1471 30.5682 49.1705 30.6003 51.0113L30.6328 52.8708H29.25L29.2492 51.3175C29.2492 50.4632 29.206 49.6164 29.1539 49.4362C29.0318 49.0128 28.701 48.8453 27.9879 48.8453C27.0923 48.8453 27.1572 48.6843 27.1572 50.9113V52.871H25.7015V49.3265H25.7019ZM37.2776 50.4424L37.3019 48.0138L37.7805 47.8611C38.0441 47.7772 38.6682 47.6825 39.1681 47.6512L40.0768 47.5938V48.7451L39.5535 48.7998C39.2659 48.8299 38.9383 48.8728 38.8257 48.8952L38.6211 48.9362V52.871H37.2535L37.2776 50.4424ZM46.7183 49.3265V45.7822H48.174V52.871H46.7183V49.3265ZM49.5387 49.3265V45.7822H50.9033V52.871H49.5387V49.3265Z" fill="white"/>
<path id="Vector_2" d="M23.3818 41.6068C22.6532 41.5414 20.7362 41.222 20.0249 41.0474C13.8771 39.5374 8.67069 35.488 5.91536 30.0731C4.40491 27.1047 3.77537 24.4499 3.77784 21.0589C3.78031 17.6639 4.41953 14.9561 5.90548 12.0447C7.0186 9.86444 8.29868 8.15626 10.1161 6.42669C13.5158 3.19192 17.8219 1.18907 22.6995 0.574791C24.2942 0.373992 27.6698 0.43934 29.159 0.699746C32.2565 1.24175 35.0371 2.30614 37.5292 3.90343C42.7067 7.22236 46.0646 12.2978 46.9402 18.1273C47.1275 19.3755 47.2362 21.973 47.1098 22.1898C47.041 22.3083 47.0052 22.1843 46.9601 21.671C46.7366 19.1278 45.5928 16.0524 44.0148 13.7517C39.2185 6.75878 30.2697 3.79194 21.9843 6.44788C15.5893 8.49785 10.7831 13.6986 9.46389 19.9961C8.8117 23.1101 9.00728 26.1625 10.0527 29.1756C11.8958 34.4899 16.3073 38.7352 21.9022 40.5788C23.2216 41.0137 24.9161 41.3761 26.0333 41.4622C27.3715 41.5656 27.0342 41.6638 25.3834 41.6516C24.4827 41.645 23.5821 41.6248 23.3818 41.607V41.6068Z" fill="#F78B24"/>
<path id="Vector_3" d="M27.9764 39.0375C21.0607 38.5529 15.3306 33.5927 14.1347 27.0555C13.9171 25.8657 13.8753 23.6415 14.0497 22.5466C15.0867 16.0459 20.285 11.1139 27.0667 10.1972C28.4413 10.0115 30.8907 10.0764 32.2072 10.3338C33.3522 10.5576 34.6216 10.9553 35.6188 11.402L36.3921 11.7486L35.6643 12.0791C33.0377 13.2722 31.4167 16.063 31.7971 18.7365C32.1782 21.4139 34.1028 23.5149 36.866 24.2704C37.8607 24.5425 39.3817 24.5423 40.377 24.2704C41.6637 23.9185 42.6729 23.3432 43.5912 22.4379C43.9013 22.1321 44.1749 21.9135 44.1992 21.9517C44.2237 21.9901 44.2945 22.4115 44.3567 22.8884C44.5102 24.0645 44.4201 26.302 44.1743 27.4192C43.3913 30.9772 41.4185 33.9638 38.3935 36.1704C35.5305 38.2588 31.7432 39.3013 27.9766 39.0375H27.9764Z" fill="#F78B24"/>
</g>
</svg>
