<svg width="108" height="13" viewBox="0 0 108 13" fill="none" xmlns="http://www.w3.org/2000/svg">
<path id="Vector" d="M13.6426 12.9687C13.1844 12.9303 12.7315 12.8506 12.2907 12.7309C10.6463 12.2821 9.45412 11.1156 8.99762 9.50868C8.78257 8.75155 8.79097 8.94122 8.77484 4.4927L8.75977 0.349188H10.6428V4.30363C10.6428 6.89914 10.6576 8.37908 10.686 8.61011C10.8492 9.93664 11.7262 10.8392 13.2824 11.282C14.0441 11.4988 14.6556 11.5087 15.3964 11.3162C16.7363 10.9681 17.5345 10.2083 17.7997 9.02839C17.8803 8.6697 17.8823 8.56175 17.8823 4.50503V0.349188H19.8822V4.41545C19.8822 8.81864 19.8814 8.83883 19.6617 9.57916C19.1784 11.209 17.9378 12.3615 16.225 12.7722C15.4489 12.9584 14.4266 13.0361 13.6425 12.9687H13.6426ZM61.2405 12.967C60.4593 12.8988 59.6816 12.6902 59.1426 12.404C58.7786 12.2108 58.2564 11.7724 58.0293 11.4694C57.8209 11.1915 57.5856 10.7279 57.5024 10.4314C57.384 10.0095 57.3384 9.38779 57.3911 8.91427C57.4784 8.12824 57.7193 7.58979 58.1893 7.12956C58.7797 6.55134 59.4313 6.21527 60.5011 5.9371C61.1424 5.77051 61.6469 5.6923 63.2191 5.5164C65.3091 5.28236 65.5384 5.25117 65.7869 5.16691C66.0802 5.06742 66.3207 4.8486 66.4419 4.57092C66.5242 4.38257 66.5356 4.29529 66.5362 3.84896C66.5367 3.41944 66.5224 3.29927 66.444 3.06922C66.1661 2.25357 65.5128 1.79757 64.3967 1.64018C62.7803 1.41218 61.4009 1.67705 60.6235 2.36467C60.1849 2.75273 59.8806 3.48206 59.8796 4.14817L59.8792 4.33857H57.9193L57.9201 4.25697C57.9235 3.91122 58.0842 3.16073 58.2485 2.72468C58.6269 1.72045 59.5632 0.850399 60.6898 0.456418C61.6548 0.119013 62.926 -0.0287149 64.1175 0.0582052C65.7206 0.175106 66.5679 0.466331 67.3386 1.1652C67.9118 1.68491 68.183 2.12894 68.3866 2.88111C68.4443 3.09497 68.4548 3.56922 68.4754 6.8954C68.4983 10.6285 68.4994 10.6686 68.582 10.8122C68.7809 11.1579 69.268 11.2456 69.8085 11.0335L69.9585 10.9745V12.5624L69.6285 12.6121C69.2232 12.6732 68.3339 12.6749 68.0457 12.615C67.5554 12.5133 67.1468 12.2325 66.9391 11.8549C66.8219 11.6417 66.7204 11.2552 66.7194 11.0178C66.719 10.9313 66.703 10.866 66.6838 10.8727C66.6646 10.8793 66.5418 11.0071 66.4111 11.1568C65.6816 11.9916 64.9856 12.4589 64.0675 12.7308C63.2676 12.9675 62.2349 13.0538 61.2405 12.967V12.967ZM63.002 11.4249C64.5122 11.1914 65.6285 10.4739 66.1989 9.37014C66.4918 8.80329 66.5282 8.59741 66.5483 7.39407C66.558 6.81065 66.5576 6.33326 66.5475 6.33326C66.5374 6.33326 66.4502 6.36469 66.3539 6.40301C65.9807 6.55183 65.002 6.72301 63.4391 6.91281C60.8751 7.2241 59.6597 7.7704 59.3751 8.73958C59.302 8.98861 59.3047 9.53117 59.3804 9.79495C59.616 10.6146 60.4354 11.2575 61.4821 11.4438C61.783 11.4972 62.5995 11.4872 63.002 11.4249V11.4249ZM73.9583 12.7511C72.7613 12.6217 72.0982 12.1674 71.8587 11.3124C71.7277 10.8445 71.7201 10.5647 71.7193 6.25166L71.7185 1.90867H69.3986V0.385455H76.3581V1.90867H73.6383L73.6395 5.96152C73.6407 9.81067 73.6537 10.3333 73.7574 10.6826C73.8567 11.0168 74.1295 11.2049 74.6047 11.267C74.8453 11.2985 75.9904 11.2575 76.248 11.2083L76.358 11.1872V12.741L75.6317 12.765C74.7709 12.7932 74.3123 12.7894 73.9582 12.7512L73.9583 12.7511ZM0.0149323 8.24647C0.0311978 3.39695 0.0198652 3.63607 0.268514 2.88788C0.842606 1.15976 2.43503 0.183327 4.93911 0.0238724C5.69679 -0.0244837 6.75365 0.0313676 7.35307 0.151291L7.44307 0.169183V1.8226L7.07309 1.77183C6.85578 1.74197 6.35661 1.71936 5.86318 1.71694C5.13097 1.71331 4.96978 1.72335 4.60634 1.79467C3.35589 2.03972 2.57075 2.58034 2.19664 3.45389C2.00879 3.8926 1.96039 4.26023 1.97266 5.15663L1.98332 5.95245L4.2533 5.96176L6.52313 5.97119V7.60261H2.00346V12.68H0L0.0149323 8.24635V8.24647ZM21.4021 6.53285V0.385455H23.3603L23.371 1.18793L23.3819 1.99052L23.5203 1.7954C23.7162 1.51941 24.2461 1.04975 24.6184 0.822474C25.2077 0.462462 25.944 0.196866 26.6586 0.0866144C27.0225 0.0304005 28.1119 0.0342689 28.6016 0.0933843C30.5258 0.325735 31.7849 1.24813 32.2204 2.74463C32.4618 3.57442 32.4529 3.37737 32.4694 8.22821L32.4845 12.68H30.5654L30.5494 8.50022C30.5322 3.99584 30.5338 4.03042 30.3178 3.37749C30.0361 2.5257 29.413 1.94615 28.509 1.69506C27.8807 1.52074 26.8951 1.51929 26.2089 1.69167C24.9393 2.0107 23.9865 2.91243 23.5822 4.1779C23.361 4.86976 23.3622 4.84486 23.3621 8.91729L23.3619 12.68H21.4021V6.53273V6.53285ZM33.9212 6.53285V0.385455H35.881V12.68H33.9212V6.53285ZM37.5209 6.53285V0.385455H39.3193L39.33 1.22588L39.3406 2.06631L39.5648 1.79709C40.2887 0.927527 41.1169 0.405644 42.1197 0.187195C43.3913 -0.0898854 44.6771 0.0138385 45.7043 0.476123C46.4199 0.798054 46.9026 1.21597 47.2414 1.80628C47.3309 1.96223 47.4097 2.09001 47.4163 2.09001C47.423 2.09001 47.5118 1.97637 47.6137 1.83735C48.2705 0.941551 49.3143 0.349793 50.6614 0.108979C51.0917 0.0320929 52.094 0.023147 52.5798 0.0918127C53.6738 0.246431 54.4364 0.58166 55.0357 1.17136C55.6875 1.81281 56.0329 2.68092 56.1197 3.89563C56.1406 4.18903 56.1582 6.28563 56.1586 8.55462L56.1594 12.68H54.1996V8.39045C54.1996 5.65337 54.1847 3.98968 54.1583 3.79359C54.026 2.81354 53.5991 2.1484 52.9139 1.85548C52.5406 1.69579 52.2572 1.63014 51.7247 1.58021C50.0789 1.42572 48.8402 2.03355 48.2609 3.28005C48.0946 3.63813 48.0202 3.87362 47.913 4.381C47.8278 4.78393 47.8258 4.86795 47.8112 8.73595L47.7966 12.68H45.8422L45.8301 8.13755L45.8179 3.59509L45.7277 3.28682C45.5393 2.64272 45.1682 2.13631 44.7051 1.8909C44.1959 1.6212 43.5461 1.51227 42.8371 1.57804C41.8938 1.66532 41.2888 1.90758 40.698 2.43455C40.0994 2.96852 39.7374 3.686 39.5345 4.74053C39.4772 5.03864 39.4668 5.565 39.4525 8.88102L39.4362 12.68H37.5206V6.53273L37.5209 6.53285ZM77.918 6.53285V0.385455H79.8379V12.68H77.918V6.53285ZM87.4373 12.628C86.6394 12.5239 85.9401 12.3292 85.2575 12.0211C81.8336 10.4764 80.4094 6.75057 82.0439 3.61323C83.4324 0.947595 86.7159 -0.494868 89.9165 0.154676C92.5948 0.698319 94.6494 2.60222 95.2377 5.08603C95.3476 5.54928 95.3892 6.6049 95.3181 7.11989C95.2207 7.82589 94.9876 8.52113 94.6308 9.17043C94.2477 9.86761 93.8615 10.3363 93.1823 10.9284C92.157 11.8222 91.0044 12.3491 89.5372 12.595C89.083 12.6712 87.9093 12.6897 87.4373 12.628V12.628ZM89.1488 10.1586C89.5639 10.0839 90.1211 9.83388 90.3863 9.60334C90.6487 9.37534 90.8864 9.04326 90.9938 8.7553C91.0395 8.63223 91.0771 8.51835 91.0771 8.50239C91.0771 8.48631 89.8688 8.47314 88.3919 8.47314H85.7069L85.7312 8.60914C85.7701 8.82759 86.023 9.25082 86.2486 9.4752C86.5958 9.82034 87.047 10.0462 87.6173 10.1602C87.952 10.2271 88.7723 10.2262 89.1488 10.1586V10.1586ZM96.9167 6.53285V0.385455H98.8349L98.8456 1.18889L98.8565 1.99233L99.0628 1.74064C99.7433 0.910724 100.802 0.327549 102.029 0.106803C102.533 0.0161354 103.694 0.0258066 104.317 0.126025C106.212 0.430426 107.358 1.34037 107.755 2.85766C107.974 3.69301 107.969 3.58252 107.985 8.30075L108 12.68H106.036V8.60176C106.036 4.24125 106.029 4.07031 105.834 3.43334C105.535 2.45715 104.823 1.84787 103.732 1.63425C103.352 1.56003 102.459 1.54915 102.076 1.61406C100.531 1.87627 99.4417 2.86346 99.0181 4.38487C98.8473 4.99899 98.8365 5.27813 98.8365 9.07287V12.68H96.9167V6.53285Z" fill="white"/>
</svg>
