<svg width="86" height="28" viewBox="0 0 86 28" fill="none" xmlns="http://www.w3.org/2000/svg">
<path id="Vector" d="M52.6994 28H59.5507V0H52.6994V28ZM40.6698 20.0169C40.6698 21 39.8333 21.8258 38.8374 21.8258H34.8541C33.8583 21.8258 33.0218 21 33.0218 20.0169V8.73034H26.1704V20.5674C26.1704 25.4045 29.3173 27.9607 33.9379 27.9607H40.6299C44.8921 27.9607 47.4812 24.9326 47.4812 20.5674V8.73034H40.6299C40.6698 8.73034 40.6698 19.6629 40.6698 20.0169V20.0169ZM79.1885 8.73034V20.0169C79.1885 21 78.352 21.8258 77.3562 21.8258H73.3729C72.377 21.8258 71.5405 21 71.5405 20.0169V8.73034H64.6892V20.5674C64.6892 25.4045 67.836 27.9607 72.4567 27.9607H79.1487C83.4108 27.9607 86 24.9326 86 20.5674V8.73034H79.1885ZM13.5433 8.73034H9.16165C7.60815 8.73034 6.85132 9.1236 6.85132 9.1236V0H0V27.9607H6.81149V16.7135C6.81149 15.7303 7.64799 14.9045 8.64382 14.9045H12.6271C13.623 14.9045 14.4595 15.7303 14.4595 16.7135V28H21.3108V15.809C21.3108 10.6966 17.8453 8.73034 13.5433 8.73034V8.73034Z" fill="#1CE783"/>
</svg>
